:SAMPLES-PER-SECOND 30
:FULLY-SPECIFIED
:DEGREES
373
root  -3.58316 40.96 1.10335 -8.75552 -87.4897 9.9115
RightUpLeg  5.56475 -1.39288 -1.04372
RightLeg  -4.2299 -18.9373 1.47156
RightFoot  -1.40719 -0.214002 2.31143
RightToes  -3.10678e-008 1.75238e-005 3.56266e-009
Spine  -4.13978 2.26251 3.08129
Spine1  4.52049 3.29761 -5.37813
HEad  -4.22009 -8.48393 11.4163
LeftShoulder1  1.80886 -2.52406 -23.7659
LeftArm  -38.0424 31.587 -56.1988
LeftForeArm  66.0806 -17.6661 -2.69364
LeftHand  -0.745632 -3.32484 10.1715
RightShoulder  -0.157752 -4.51767 7.7074
RightArm  -60.927 33.0582 -1.25168
RightForeArm  126.639 66.2889 152.867
RightHand  0.265222 10.9981 1.4486
LeftUpLeg  4.23143 0.41457 1.18019
LeftLeg  -3.71067 12.3705 -0.991516
LeftFoot  -0.965433 0.237762 -2.61361
LeftToes  4.76857e-008 1.46588e-008 1.31384e-009
374
root  -3.59988 40.9611 1.10378 -7.05737 -87.181 8.30029
RightUpLeg  5.58338 -1.3289 -0.969921
RightLeg  -4.36049 -19.3194 1.51595
RightFoot  -1.3705 -0.214004 2.32389
RightToes  -3.10678e-008 1.75238e-005 3.56266e-009
Spine  -3.65364 2.21422 2.94471
Spine1  3.87781 3.21825 -5.31517
HEad  -4.18077 -8.73614 11.5028
LeftShoulder1  1.8184 -2.51471 -23.9808
LeftArm  -37.5911 31.6475 -55.8811
LeftForeArm  65.3885 -17.9083 -2.73966
LeftHand  -0.742811 -3.17974 10.279
RightShoulder  -0.172454 -4.60597 7.83156
RightArm  -61.1516 32.759 -1.37983
RightForeArm  126.63 66.3293 152.816
RightHand  0.279702 11.0118 1.55061
LeftUpLeg  4.15587 0.488438 1.26374
LeftLeg  -3.77396 11.9782 -1.05184
LeftFoot  -0.914568 0.232729 -2.53731
LeftToes  4.76857e-008 1.46588e-008 1.31384e-009
375
root  -3.63458 40.9599 1.09694 -6.22012 -86.9134 7.55664
RightUpLeg  5.61593 -1.28696 -0.920635
RightLeg  -4.47607 -19.66 1.55344
RightFoot  -1.37063 -0.217607 2.39413
RightToes  -3.10678e-008 1.75238e-005 3.56266e-009
Spine  -4.5947 2.20266 2.82571
Spine1  4.83363 3.22875 -5.24979
HEad  -4.3079 -8.89926 11.5513
LeftShoulder1  1.8753 -2.71541 -23.9186
LeftArm  -37.9983 31.2935 -55.7252
LeftForeArm  66.286 -17.6006 -2.67334
LeftHand  -0.850093 -3.60215 11.2211
RightShoulder  -0.135413 -4.36013 7.93157
RightArm  -61.3731 32.6044 -1.52254
RightForeArm  125.726 66.4697 152.548
RightHand  0.328794 10.776 1.93112
LeftUpLeg  4.08211 0.497269 1.30129
LeftLeg  -3.78333 11.6779 -1.0473
LeftFoot  -0.946109 0.232971 -2.54351
LeftToes  4.76857e-008 1.46588e-008 1.31384e-009
376
root  -3.66252 40.9563 1.0925 -7.44022 -86.8247 8.80783
RightUpLeg  5.59796 -1.3407 -0.98864
RightLeg  -4.38456 -19.697 1.5184
RightFoot  -1.47873 -0.215747 2.38174
RightToes  -3.10678e-008 1.75238e-005 3.56266e-009
Spine  -4.73089 2.23119 2.5016
Spine1  5.00193 3.23408 -4.9856
HEad  -4.26576 -8.68702 11.5938
LeftShoulder1  1.83242 -2.58631 -23.85
LeftArm  -38.0479 31.12 -55.7762
LeftForeArm  65.4068 -17.9152 -2.62003
LeftHand  -0.764037 -3.16671 10.5923
RightShoulder  -0.143658 -4.41111 7.97297
RightArm  -61.2697 32.6542 -1.32836
RightForeArm  126.183 66.5666 152.475
RightHand  0.284553 10.8655 1.6046
LeftUpLeg  4.12532 0.462199 1.23388
LeftLeg  -3.859 11.6157 -1.07196
LeftFoot  -0.944159 0.233762 -2.55874
LeftToes  4.76857e-008 1.46588e-008 1.31384e-009
377
root  -3.69319 40.9545 1.08569 -6.55649 -86.745 7.87253
RightUpLeg  5.7623 -1.30608 -0.914111
RightLeg  -4.49557 -19.8285 1.55214
RightFoot  -1.49721 -0.209446 2.31088
RightToes  -3.10678e-008 1.75238e-005 3.56266e-009
Spine  -4.6099 2.27823 2.40047
Spine1  4.81225 3.25339 -4.86261
HEad  -4.19057 -9.10606 11.336
LeftShoulder1  1.8602 -2.65125 -23.9911
LeftArm  -37.9042 31.1693 -55.4638
LeftForeArm  63.8481 -18.2793 -2.6311
LeftHand  -0.694865 -3.07753 9.76554
RightShoulder  -0.127391 -4.29957 8.1186
RightArm  -60.9466 32.4162 -1.2452
RightForeArm  126.445 66.5436 152.531
RightHand  0.23206 10.9259 1.22203
LeftUpLeg  4.17548 0.534808 1.30529
LeftLeg  -3.77 11.4989 -1.05908
LeftFoot  -1.02085 0.234748 -2.57754
LeftToes  4.76857e-008 1.46588e-008 1.31384e-009
378
root  -3.7342 40.9485 1.07972 -6.4422 -86.7359 7.62872
RightUpLeg  5.9336 -1.36891 -0.919836
RightLeg  -4.40277 -19.7724 1.56286
RightFoot  -1.63282 -0.209135 2.33004
RightToes  -3.10678e-008 1.75238e-005 3.56266e-009
Spine  -5.01367 2.38628 2.19924
Spine1  5.42783 3.33276 -4.55525
HEad  -4.26697 -8.70658 11.2031
LeftShoulder1  1.89118 -2.72013 -24.1631
LeftArm  -37.6126 31.0257 -55.0892
LeftForeArm  62.9852 -18.3094 -2.69006
LeftHand  -0.733999 -2.8559 10.5573
RightShoulder  -0.0701953 -3.9331 8.17665
RightArm  -60.9305 32.018 -1.29468
RightForeArm  126.057 66.3917 152.679
RightHand  0.216034 10.5233 1.15501
LeftUpLeg  4.29103 0.548942 1.3155
LeftLeg  -3.57505 11.4553 -0.972651
LeftFoot  -1.17294 0.237229 -2.6202
LeftToes  4.76857e-008 1.46588e-008 1.31384e-009
379
root  -3.76007 40.9428 1.07272 -7.02277 -86.7176 8.12741
RightUpLeg  5.93463 -1.44454 -0.971422
RightLeg  -4.09306 -19.7026 1.48763
RightFoot  -1.85805 -0.216716 2.47074
RightToes  -3.10678e-008 1.75238e-005 3.56266e-009
Spine  -5.26805 2.52014 2.15654
Spine1  5.78077 3.4931 -4.57416
HEad  -4.06197 -8.66603 11.1296
LeftShoulder1  1.91758 -2.81484 -24.124
LeftArm  -37.8061 30.8925 -54.7886
LeftForeArm  63.0051 -18.2041 -2.67191
LeftHand  -0.724303 -3.17418 10.0515
RightShoulder  -0.0655259 -3.89892 8.36795
RightArm  -60.6965 32.0581 -1.10821
RightForeArm  125.964 66.6566 152.338
RightHand  0.190694 10.7856 0.943706
LeftUpLeg  4.37901 0.524673 1.28155
LeftLeg  -3.48341 11.4386 -0.919422
LeftFoot  -1.25102 0.238712 -2.64797
LeftToes  4.76857e-008 1.46588e-008 1.31384e-009
380
root  -3.78957 40.936 1.05107 -7.55786 -86.6037 8.68115
RightUpLeg  5.86564 -1.48167 -0.99107
RightLeg  -3.85458 -19.7644 1.42526
RightFoot  -2.03287 -0.215271 2.47056
RightToes  -3.10678e-008 1.75238e-005 3.56266e-009
Spine  -5.39953 2.63144 2.027
Spine1  5.72893 3.62507 -4.60759
HEad  -3.89152 -8.66734 11.1291
LeftShoulder1  1.88015 -2.75288 -23.8111
LeftArm  -38.4319 30.8291 -54.7293
LeftForeArm  63.1101 -17.8637 -2.63142
LeftHand  -0.710249 -2.8805 10.192
RightShoulder  -0.0467825 -3.77648 8.62674
RightArm  -60.1926 31.8384 -0.999304
RightForeArm  125.987 66.8098 152.145
RightHand  0.2266 10.7385 1.20427
LeftUpLeg  4.33266 0.551409 1.29933
LeftLeg  -3.3469 11.2805 -0.926613
LeftFoot  -1.34492 0.242209 -2.70775
LeftToes  4.76857e-008 1.46588e-008 1.31384e-009
381
root  -3.82249 40.9316 1.01509 -6.36749 -86.3563 7.39313
RightUpLeg  6.08273 -1.39174 -0.820103
RightLeg  -3.94339 -20.1344 1.43489
RightFoot  -2.08129 -0.210745 2.42184
RightToes  -3.10678e-008 1.75238e-005 3.56266e-009
Spine  -5.36283 2.64902 1.94506
Spine1  5.63571 3.64744 -4.62209
HEad  -3.79514 -8.48144 11.315
LeftShoulder1  1.8676 -2.73857 -23.6722
LeftArm  -39.068 30.9356 -54.4994
LeftForeArm  63.1929 -17.7311 -2.53759
LeftHand  -0.710056 -2.82318 10.2581
RightShoulder  -0.0351267 -3.7002 8.92142
RightArm  -59.5903 31.7596 -0.980874
RightForeArm  126.183 66.7857 152.198
RightHand  0.27485 11.0063 1.51584
LeftUpLeg  4.34707 0.671847 1.44678
LeftLeg  -3.11836 10.9079 -0.874483
LeftFoot  -1.45906 0.246907 -2.78698
LeftToes  4.76857e-008 1.46588e-008 1.31384e-009
382
root  -3.87879 40.9271 0.965004 -3.07193 -85.7571 3.85477
RightUpLeg  6.79055 -1.25585 -0.479947
RightLeg  -4.60543 -20.9038 1.71158
RightFoot  -1.9687 -0.205124 2.35542
RightToes  -3.10678e-008 1.75238e-005 3.56266e-009
Spine  -5.58851 2.53936 1.56681
Spine1  6.10357 3.43796 -4.02773
HEad  -3.42206 -7.91055 11.0582
LeftShoulder1  1.89444 -2.78754 -23.8755
LeftArm  -39.1784 30.9678 -53.9778
LeftForeArm  62.5817 -17.5177 -2.57383
LeftHand  -0.699339 -2.5407 10.446
RightShoulder  -0.023866 -3.63179 8.89096
RightArm  -59.4294 31.9077 -1.01269
RightForeArm  125.909 66.8905 152.034
RightHand  0.211718 10.9163 1.08094
LeftUpLeg  4.39002 0.917591 1.78597
LeftLeg  -2.6582 9.99357 -0.742308
LeftFoot  -1.65028 0.246569 -2.78864
LeftToes  4.76857e-008 1.46588e-008 1.31384e-009
383
root  -3.92294 40.923 0.936162 -2.9101 -85.3955 3.67303
RightUpLeg  7.00508 -1.2219 -0.384525
RightLeg  -4.81216 -21.3169 1.79204
RightFoot  -1.95688 -0.198116 2.26686
RightToes  -3.10678e-008 1.75238e-005 3.56266e-009
Spine  -5.62337 2.62891 1.41319
Spine1  6.07651 3.50644 -3.86791
HEad  -3.44247 -8.01389 10.9677
LeftShoulder1  1.93893 -2.89211 -24.0911
LeftArm  -38.9063 31.1505 -53.2463
LeftForeArm  62.293 -17.348 -2.66736
LeftHand  -0.718477 -2.62096 10.6258
RightShoulder  -0.0098638 -3.5468 8.78687
RightArm  -59.0385 31.8198 -1.04813
RightForeArm  126.121 67.0459 151.854
RightHand  0.122586 10.9736 0.44283
LeftUpLeg  4.4188 0.973206 1.8748
LeftLeg  -2.63824 9.55454 -0.745124
LeftFoot  -1.65186 0.247777 -2.8152
LeftToes  4.76857e-008 1.46588e-008 1.31384e-009
384
root  -3.94239 40.9178 0.895278 -2.23035 -85.0222 2.97479
RightUpLeg  7.16729 -1.13862 -0.213265
RightLeg  -5.00561 -21.8273 1.87889
RightFoot  -1.9511 -0.18702 2.11249
RightToes  -3.10678e-008 1.75238e-005 3.56266e-009
Spine  -5.34304 2.72557 1.3931
Spine1  5.68227 3.59954 -3.89067
HEad  -3.05302 -8.5489 10.8089
LeftShoulder1  1.91353 -2.80277 -24.1172
LeftArm  -39.1238 31.2306 -52.813
LeftForeArm  62.9805 -17.1112 -2.63594
LeftHand  -0.749056 -3.08839 10.4837
RightShoulder  -0.00301531 -3.50466 8.76002
RightArm  -58.848 32.032 -1.12287
RightForeArm  126.061 67.2743 151.547
RightHand  0.174115 11.0228 0.805921
LeftUpLeg  4.29061 1.06134 2.01171
LeftLeg  -2.40006 9.07985 -0.698364
LeftFoot  -1.65397 0.239714 -2.6984
LeftToes  4.76857e-008 1.46588e-008 1.31384e-009
385
root  -3.9712 40.916 0.848734 -2.44986 -84.4629 3.20599
RightUpLeg  7.34123 -1.11186 -0.126296
RightLeg  -5.22064 -22.4234 1.9868
RightFoot  -1.95748 -0.183285 2.07976
RightToes  -3.10678e-008 1.75238e-005 3.56266e-009
Spine  -5.57286 2.88386 1.32992
Spine1  6.01499 3.79269 -3.92259
HEad  -3.14612 -8.47053 10.8618
LeftShoulder1  1.87421 -2.69944 -23.9822
LeftArm  -39.4163 30.9808 -52.7284
LeftForeArm  63.1168 -16.8717 -2.59211
LeftHand  -0.727546 -2.82992 10.5011
RightShoulder  -0.00279464 -3.50378 8.63939
RightArm  -58.8345 32.1045 -1.36812
RightForeArm  126.099 67.3171 151.493
RightHand  0.208431 10.6981 1.07733
LeftUpLeg  4.17769 1.11281 2.08553
LeftLeg  -2.27492 8.42894 -0.694481
LeftFoot  -1.59601 0.232362 -2.60246
LeftToes  4.76857e-008 1.46588e-008 1.31384e-009
386
root  -3.99288 40.9129 0.788061 -2.9332 -83.644 3.81863
RightUpLeg  7.3105 -1.08986 -0.04837
RightLeg  -5.25602 -23.3122 2.04691
RightFoot  -2.06461 -0.183017 2.10317
RightToes  -3.10678e-008 1.75238e-005 3.56266e-009
Spine  -5.67499 3.00762 0.941651
Spine1  5.87969 3.91496 -3.72688
HEad  -3.23228 -8.69902 10.8861
LeftShoulder1  1.88036 -2.73612 -23.8994
LeftArm  -39.5307 31.1779 -52.8206
LeftForeArm  61.7696 -17.0429 -2.60676
LeftHand  -0.617481 -1.67768 10.3159
RightShoulder  -0.0171879 -3.59337 8.55405
RightArm  -58.5363 32.5955 -1.1754
RightForeArm  126.8 67.6152 151.169
RightHand  0.205115 11.4169 0.981302
LeftUpLeg  3.9012 1.10378 2.12545
LeftLeg  -2.18078 7.61402 -0.691668
LeftFoot  -1.52996 0.232244 -2.63103
LeftToes  4.76857e-008 1.46588e-008 1.31384e-009
